<svg width="446" height="644" viewBox="0 0 446 644" fill="none" xmlns="http://www.w3.org/2000/svg">
<path d="M119.722 9.87935L133.294 2.88166V2.88398C139.016 -0.567625 146.805 -0.954728 153.025 1.90471L313.447 74.9069C327.282 81.2018 335.804 92.8516 335.801 105.462L335.676 462.789C335.705 466.975 333.301 470.941 329.158 473.549L329.161 473.561L329.085 473.6C328.236 474.132 327.332 474.602 326.375 475.003L314.343 481.003L307.58 474.003L150.411 402.432C135.448 395.618 126.228 383.015 126.228 369.374L126.211 30.3494L119.722 9.87935Z" fill="url(#paint0_linear_206_3)"/>
<path d="M141.027 7.81918L301.451 80.8214C315.283 87.1163 323.808 98.766 323.802 111.377L323.68 468.703C323.677 473.657 320.331 478.235 314.898 480.712C309.466 483.189 302.773 483.192 297.341 480.717L138.413 408.346C123.452 401.533 114.229 388.929 114.229 375.289L114.212 20.0588C114.212 15.015 117.617 10.3514 123.148 7.82839C128.677 5.30305 135.492 5.30075 141.027 7.81918Z" fill="url(#paint1_linear_206_3)"/>
<path d="M313.653 114.312V463.372C313.653 466.141 311.78 468.696 308.743 470.079C305.708 471.459 301.968 471.457 298.937 470.067L145.759 399.888C133.436 394.243 125.853 383.844 125.853 372.595V27.0082C125.853 24.363 127.63 21.9183 130.524 20.5842C133.415 19.2524 136.986 19.2316 139.901 20.5335L295.76 90.0933C306.817 95.0288 313.653 104.282 313.653 114.312Z" fill="url(#paint2_linear_206_3)"/>
<path d="M136.354 356.414V370.995C136.354 373.804 138.259 376.396 141.348 377.788L297.63 448.165C298.774 448.682 300.177 448.677 301.315 448.154C302.453 447.631 303.153 446.67 303.153 445.631V431.426C303.153 428.624 301.254 426.039 298.179 424.645L141.885 353.884C140.741 353.366 139.335 353.368 138.194 353.889C137.054 354.412 136.354 355.373 136.354 356.414Z" fill="url(#paint3_linear_206_3)"/>
<path fill-rule="evenodd" clip-rule="evenodd" d="M90.4092 109.093V227.31C90.4092 230.598 92.6294 233.635 96.2354 235.28L252.757 306.634C253.959 307.181 255.438 307.181 256.64 306.634C257.842 306.086 258.583 305.072 258.583 303.978L258.609 185.766C258.609 182.478 256.389 179.439 252.783 177.794L96.2354 106.437C95.0334 105.891 93.5513 105.891 92.3493 106.439C91.1502 106.985 90.4092 107.999 90.4092 109.093Z" fill="url(#paint4_linear_206_3)"/>
<path d="M277.8 193.64V311.856C277.8 315.144 280.02 318.181 283.627 319.824L440.148 391.179C441.35 391.727 442.829 391.727 444.031 391.179C445.233 390.63 445.974 389.619 445.974 388.522L446 270.31C446 267.022 443.78 263.983 440.174 262.34L283.627 190.983C282.425 190.435 280.942 190.435 279.74 190.983C278.541 191.532 277.8 192.543 277.8 193.64Z" fill="url(#paint5_linear_206_3)"/>
<path d="M270.422 78.6148V86.5825C270.422 89.8429 268.219 92.859 264.645 94.4903C261.071 96.124 256.666 96.1286 253.086 94.5019L176.878 59.8844C169.464 56.5181 164.893 50.2761 164.893 43.5227V31.449L270.422 78.6148Z" fill="#5E5B5B"/>
<path d="M269.569 478.941C271.393 478.408 272.435 477.044 271.897 475.895C271.358 474.745 269.443 474.246 267.619 474.779C265.795 475.312 264.753 476.676 265.292 477.825C265.83 478.975 267.745 479.474 269.569 478.941Z" fill="url(#paint6_linear_206_3)"/>
<path d="M262.229 480.51C265.105 480.386 267.947 481.072 270.246 482.443C273.096 484.432 273.222 490.199 268.125 492.627C263.028 495.056 262.229 480.51 262.229 480.51Z" fill="url(#paint7_linear_206_3)"/>
<path d="M268.578 485.701C266.842 481.899 262.647 479.611 259.207 480.59C258.836 480.701 258.486 480.846 258.162 481.026L258.157 481.016L227.955 492.929L234.242 506.698L265.494 494.36C268.934 493.38 270.314 489.503 268.578 485.701Z" fill="url(#paint8_linear_206_3)"/>
<path d="M234.24 506.699C237.679 505.72 239.059 501.843 237.323 498.041C235.587 494.238 231.392 491.95 227.953 492.929C224.514 493.909 223.133 497.785 224.869 501.588C226.605 505.39 230.801 507.679 234.24 506.699Z" fill="url(#paint9_linear_206_3)"/>
<path d="M205.548 344.192C205.548 344.192 206.849 359.927 205.533 364.771C204.22 369.612 197.837 372.874 197.837 372.874C197.837 372.874 190.102 365.78 189.919 358.243C189.738 350.704 205.548 344.192 205.548 344.192Z" fill="url(#paint10_linear_206_3)"/>
<path d="M195.134 629.369C195.134 629.369 193.368 637.846 195.338 641.076C197.441 644.528 204.522 644.968 211.197 642.161C216.816 639.802 232.527 632.85 232.527 628.094C232.527 623.339 222.634 622.915 215.323 625.037C212.551 625.998 209.648 626.71 206.672 627.161L195.134 629.369Z" fill="#06104E"/>
<path d="M221.515 517.014C221.515 517.014 221.638 529.763 221.515 535.799C221.404 541.38 214.309 617.189 213.233 628.661C213.125 629.917 212.509 631.113 211.479 632.073C209.198 634.122 205.688 635.03 202.315 634.444C198.946 633.857 196.241 631.871 195.261 629.255C194.368 626.956 191.31 545.553 190.082 539.539C188.463 531.615 186.033 518.41 186.033 518.41L221.515 517.014Z" fill="url(#paint11_linear_206_3)"/>
<path d="M148.791 616.798C148.791 616.798 147.577 625.196 149.617 628.24C151.793 631.491 158.524 631.5 164.694 628.358C169.89 625.712 184.396 617.975 184.14 613.323C183.883 608.671 174.491 608.844 167.682 611.358C165.12 612.459 162.41 613.328 159.603 613.95L148.791 616.798Z" fill="#06104E"/>
<path d="M188.29 507.542C188.29 507.542 186.866 520.24 186.012 526.242C185.221 531.788 168.956 606.71 166.493 618.049C166.234 619.291 165.475 620.436 164.334 621.314C161.814 623.18 158.211 623.816 154.926 622.977C151.64 622.139 149.19 619.957 148.53 617.279C147.924 614.922 154.759 533.664 154.266 527.583C153.619 519.574 152.697 506.242 152.697 506.242L188.29 507.542Z" fill="url(#paint12_linear_206_3)"/>
<path d="M159.572 378.671C159.572 378.671 152.077 376.841 142.986 392.15C133.16 408.696 128.571 419.874 128.781 422.224C129.105 425.848 136.687 449.763 150.429 466.095C163.447 481.565 154.283 453.719 154.283 453.719C154.283 453.719 147.252 428.8 146.117 426.141C146.117 426.141 151.949 416.212 154.376 413.014C156.801 409.818 159.572 378.671 159.572 378.671Z" fill="url(#paint13_linear_206_3)"/>
<path d="M218.533 453.721C218.533 453.721 225.036 514.034 222.501 519.716C220.657 523.85 200.068 530.274 183.351 520.923C182.327 520.331 181.668 519.426 181.536 518.428L181.186 516.048C181.186 516.048 160.145 519.299 151.191 506.82C151.369 502.838 151.174 498.85 150.614 494.889C148.426 483.732 148.747 472.357 151.559 461.288L218.533 453.721Z" fill="url(#paint14_linear_206_3)"/>
<path d="M166.062 484.837C166.062 484.837 170.351 502.173 170.229 509.097C170.083 511.438 170.229 513.784 170.669 516.102C174.153 516.581 177.715 516.563 181.187 516.047C181.187 516.047 176.519 501.694 174.477 498.18C172.431 494.669 167.746 490.572 166.062 484.837Z" fill="black"/>
<path d="M152.458 406.498C152.458 406.498 152.601 414.385 150.498 418.892C150.498 418.892 157.555 433.592 151.279 461.258C151.279 461.258 151.679 471.663 175.886 474.145C204.763 477.108 219.485 462.97 219.485 462.97L205.215 381.668C205.215 381.668 193.461 378.085 184.498 377.737C175.533 377.387 153.193 400.742 152.458 406.498Z" fill="url(#paint15_linear_206_3)"/>
<path d="M166.863 333.987C173.809 329.674 182.833 328.038 191.466 329.528C194.973 330.019 198.241 331.261 200.919 333.116C208.157 338.627 207.139 342.521 205.584 344.565C204.306 346.803 203.53 349.199 203.285 351.646C202.827 354.39 201.348 350.678 199.119 351.084C196.893 351.487 194.413 352.436 195.317 356.042C196.222 359.648 199.294 358.438 199.874 361.392C200.455 364.349 198.69 370.736 199.224 377.825C199.755 384.913 193.952 411.319 177.316 414.567C160.196 417.911 146.399 409.851 149.638 394.738C152.459 381.558 160.272 374.196 159.032 364.425C158.008 356.365 152.602 342.941 166.863 333.987Z" fill="#5E5B5B"/>
<path d="M203.967 335.826C203.967 335.826 199.097 345.844 187.681 349.146C176.262 352.448 172.776 352.36 171.203 353.884C171.203 353.884 168.242 352.248 166.652 354.231C165.636 353.268 164.405 352.46 163.022 351.844C160.058 350.301 158.194 350.614 157.444 347.383C156.478 350.377 156.551 353.519 157.651 356.483C159.807 358.114 162.661 359.04 165.645 359.077C167.18 360.245 169.578 360.319 171.224 359.248C171.224 359.248 184.974 358.176 190.543 355.925C196.11 353.674 203.234 347.052 206.228 343.494C207.208 340.801 206.35 337.9 203.967 335.826Z" fill="url(#paint16_linear_206_3)"/>
<path d="M204.763 416.641C204.763 416.641 201.583 449.853 208.135 455.413C213.606 460.051 214.303 462.595 217.506 464.574C218.204 464.07 218.863 463.533 219.484 462.968L211.511 417.542C205.451 415.772 204.763 416.641 204.763 416.641Z" fill="black"/>
<path d="M205.214 381.667C200.596 388.98 198.743 397.19 199.875 405.314C201.328 417.134 204.762 416.641 204.762 416.641C204.762 416.641 209.731 440.848 211.464 445.641C213.2 450.431 230.188 482.952 232.23 486.042C234.273 489.132 234.243 490.238 236.052 491.441C237.794 492.514 239.297 493.807 240.502 495.27C243.804 501.904 240.528 504.229 243.329 504.362C246.129 504.494 246.395 501.841 246.395 501.841C246.395 501.841 246.76 502.738 248.936 502.411C252.942 501.178 255.527 498.081 255.375 494.687C255.232 490.252 253.747 490.853 248.198 485.678C242.118 480.007 230.34 446.74 229.861 442.678C229.38 438.613 227.186 405.003 225.409 397.233C223.633 389.466 213.045 383.125 205.214 381.667Z" fill="url(#paint17_linear_206_3)"/>
<path d="M171.224 359.248C172.686 362.709 173.447 366.329 173.476 369.978C173.182 374.847 171.481 381.338 173.007 384.955C173.007 384.955 170.953 379.762 166.431 381.895C166.562 378.739 167.274 375.614 168.543 372.621C170.483 368.725 170.471 361.064 169.567 359.886C168.663 358.709 171.224 359.248 171.224 359.248Z" fill="url(#paint18_linear_206_3)"/>
<path d="M167.291 359.125C166.504 361.044 165.535 362.915 164.394 364.721C162.162 368.185 155.041 371.491 154.375 387.722C154.375 387.722 158.679 382.498 163.77 384.954C163.77 384.954 163.77 372.016 166.431 367.998C168.059 365.346 168.811 362.41 168.622 359.466L167.291 359.125Z" fill="url(#paint19_linear_206_3)"/>
<path d="M203.642 358.091C203.729 358.875 203.729 359.66 203.642 360.442C203.49 361.52 203.128 361.423 203.432 362.333C203.735 363.243 205.739 363.803 205.739 363.803C206.057 362.177 206.18 360.529 206.104 358.884C205.36 358.492 204.523 358.223 203.642 358.091Z" fill="#F36C68"/>
<path d="M66.4108 207.45C66.4108 207.45 70.329 220.335 68.914 224.943C68.1351 227.607 65.451 229.662 62.055 230.194C62.055 230.194 47.3887 235.678 44.0131 229.1C40.6376 222.521 43.0066 208.284 43.0066 208.284L66.4108 207.45Z" fill="url(#paint20_linear_206_3)"/>
<path d="M66.3748 193.37C66.3748 193.37 75.6904 195.886 72.2186 202.176C68.7497 208.466 62.2699 208.46 61.9694 209.464C61.6689 210.469 62.9321 214.971 60.2568 213.803C57.5785 212.632 57.2372 209.96 53.0039 210.072C48.7706 210.185 46.457 212.01 49.4883 215.367C52.5166 218.724 54.6027 217.637 54.4539 221.595C54.3868 224.48 52.1899 227.066 48.8348 228.206C46.8392 228.895 37.7249 229.264 32.7885 220.059C30.6762 215.925 29.9964 211.423 30.8221 207.013C32.4705 200.614 53.5961 192.427 66.3748 193.37Z" fill="black"/>
<path d="M66.3412 474.906C66.3412 474.906 64.7891 483.828 67.056 485.915C69.3229 488.005 73.1507 490.083 80.8996 488.067C89.9847 485.325 97.8211 480.496 103.393 474.199C108.496 467.706 101.208 464.358 92.0648 466.809C87.922 467.927 83.8696 469.24 79.928 470.747C77.5648 471.567 66.3412 474.906 66.3412 474.906Z" fill="black"/>
<path d="M22.6387 460.353C22.6387 460.353 21.0895 469.275 23.3564 471.365C25.6233 473.452 29.4511 475.53 37.2 473.514C46.2851 470.772 54.1215 465.943 59.6939 459.646C64.7937 453.153 57.5087 449.805 48.3653 452.256C44.2224 453.374 40.17 454.687 36.2284 456.194C33.8653 457.014 22.6387 460.353 22.6387 460.353Z" fill="black"/>
<path d="M80.3682 322.152C80.3682 322.152 88.4906 381.103 88.6948 393.373C88.8873 404.852 87.0231 457.645 85.5876 473.516C85.4126 475.672 83.9451 477.633 81.6403 478.795C79.5397 479.854 77.1094 480.44 74.6178 480.483C70.0053 480.55 68.4415 479.313 68.4415 479.313C66.7902 478.566 65.7078 477.223 65.5531 475.725C65.3839 474.069 65.1884 472.163 65.1884 472.163C65.1855 472.133 57.5446 395.942 56.8182 392.299C56.0888 388.659 50.9919 372.938 50.9919 372.938C50.9919 372.938 50.9657 382.64 50.9773 389.329C50.989 395.253 44.515 448.412 43.0359 460.113C42.8258 461.859 41.615 463.435 39.7537 464.394C36.2381 466.195 30.0938 467.914 23.8971 462.852C22.8993 462.027 22.3479 460.924 22.3624 459.781C22.4354 449.748 22.7505 395.587 21.3792 380.288C19.8592 363.35 14.1672 339.534 19.4362 316.203L80.3682 322.152Z" fill="url(#paint21_linear_206_3)"/>
<path d="M42.7408 359.52C39.1201 354.596 35.9546 349.472 33.2764 344.184C33.2764 344.184 36.6724 362.972 42.1339 372.172C47.5955 381.375 42.4169 399.103 49.133 408.545C50.2066 399.884 50.9856 391.384 50.9798 389.331C50.971 382.642 50.9944 372.939 50.9944 372.939C48.5495 368.354 45.7925 363.875 42.7408 359.52Z" fill="black"/>
<path d="M82.3823 286.71C86.5923 288.932 90.9598 290.957 95.4644 292.777C99.3563 294.065 105.728 295.586 115.505 288.704C125.278 281.821 146.553 265.489 147.259 265.125C147.965 264.763 153.345 265.273 157.838 263.321C161.353 262.049 163.401 259.114 162.882 256.088C162.301 254.077 161.773 253.392 162.374 252.667C162.978 251.939 168.411 248.144 167.999 246.752C167.588 245.36 162.342 246.973 157.161 249.607C151.979 252.24 148.572 251.031 147.769 252.342C146.964 253.653 142.506 256.194 137.135 259.669C127.493 265.04 117.454 269.952 107.07 274.376C105.865 274.519 97.705 269.298 97.705 269.298L82.3823 286.71Z" fill="url(#paint22_linear_206_3)"/>
<path d="M75.2592 245.776C75.2592 245.776 91.3901 260.499 97.7415 268.569C97.7415 268.569 97.6189 285.783 80.5953 286.898L74.8916 283.794C74.8916 283.794 77.0243 306.799 78.8506 312.698C80.6799 318.596 82.9059 325.036 76.8142 328.633C70.7195 332.23 52.3276 336.08 37.9239 331.76C20.7894 326.617 18.5896 320.739 17.8165 316.93C17.0433 313.122 16.9208 298.347 16.0339 284.946L15.1469 271.546C12.6933 271.101 10.406 270.205 8.47461 268.93C8.47461 268.93 11.29 248.97 15.0302 240.647C17.5714 234.995 21.7609 227.822 29.1977 228.414L75.2592 245.776Z" fill="url(#paint23_linear_206_3)"/>
<path d="M66.2801 291.17C71.5491 298.884 69.2705 305.377 77.848 308.066C76.325 299.243 74.8925 283.794 74.8925 283.794L61.8834 273.607C61.3786 279.663 62.8958 285.72 66.2801 291.17Z" fill="black"/>
<path d="M65.5201 188.015C70.6549 192.892 65.4384 203.208 53.8618 211.051C42.288 218.897 28.7421 221.303 23.6073 216.425C18.4696 211.544 23.689 201.231 35.2627 193.386C46.8364 185.54 60.3853 183.134 65.5201 188.015Z" fill="url(#paint24_linear_206_3)"/>
<path d="M57.0949 191.598C60.7797 195.098 57.0336 202.499 48.7304 208.128C40.4242 213.757 30.706 215.483 27.0212 211.98C23.3364 208.48 27.0825 201.082 35.3857 195.453C43.6918 189.824 53.4101 188.098 57.0949 191.598Z" fill="#5E5B5B"/>
<path d="M26.4594 211.33L20.1664 204.644L3.53076 197.012L33.3681 167.611C33.3681 167.611 48.5975 181.775 49.9658 183.22C51.3312 184.667 57.0961 191.597 57.0961 191.597L26.4594 211.33Z" fill="url(#paint25_linear_206_3)"/>
<path d="M33.3679 167.611C38.6456 171.109 36.0695 180.427 27.6146 188.422C19.1567 196.42 8.02063 200.067 2.73995 196.569C-2.53782 193.074 0.0383359 183.756 8.49618 175.761C16.954 167.763 28.0872 164.116 33.3679 167.611Z" fill="url(#paint26_linear_206_3)"/>
<path d="M29.2465 227.908C29.2465 227.908 24.2371 232.415 23.0001 243.694C21.7631 254.971 22.2766 268.961 22.2766 268.961C25.5938 269.583 28.6775 270.809 31.2829 272.544C36.8028 275.782 41.1907 274.077 41.1907 274.077C41.1907 274.077 39.5978 250.625 39.3877 245.355C39.1776 242.819 39.341 240.272 39.8749 237.768L29.2465 227.908Z" fill="url(#paint27_linear_206_3)"/>
<path d="M32.9388 220.337C32.9388 220.337 36.2298 227.98 46.4848 228.731C56.7398 229.48 63.1175 228.4 66.5339 230.25C69.9532 232.1 74.0756 234.665 75.2602 245.775C75.2602 245.775 70.1866 243.303 59.2868 242.946C48.3841 242.586 31.5238 237.13 29.2453 227.909C29.2453 227.909 28.8281 222.609 32.9388 220.337Z" fill="url(#paint28_linear_206_3)"/>
<path d="M28.9033 269.93V275.554" stroke="white" stroke-width="0.75" stroke-linecap="round" stroke-linejoin="round"/>
<path d="M34.6074 271.591V277.215" stroke="white" stroke-width="0.75" stroke-linecap="round" stroke-linejoin="round"/>
<path d="M40.3115 273.255V278.877" stroke="white" stroke-width="0.75" stroke-linecap="round" stroke-linejoin="round"/>
<path d="M233.371 140.349C233.1 142.92 230.778 144.079 228.19 142.934C225.377 141.439 223.782 138.879 223.992 136.208C224.266 133.635 226.585 132.476 229.173 133.621C231.986 135.116 233.581 137.676 233.371 140.349Z" fill="#5E5B5B"/>
<path d="M217.705 132.732C217.434 135.303 215.115 136.462 212.524 135.319C209.714 133.822 208.115 131.262 208.328 128.591C208.6 126.017 210.919 124.858 213.51 126.004C216.32 127.499 217.918 130.059 217.705 132.732Z" fill="#969696"/>
<path d="M202.04 125.114C201.766 127.685 199.447 128.844 196.859 127.702C194.046 126.204 192.45 123.644 192.661 120.973C192.935 118.4 195.254 117.241 197.842 118.386C200.654 119.881 202.25 122.441 202.04 125.114Z" fill="#5E5B5B"/>
<path d="M146.314 76.7318L208.098 104.829C210.817 106.064 213.017 104.838 213.017 102.093C212.924 99.2087 211.098 96.5313 208.098 94.8838L146.314 66.7894C143.595 65.5521 141.396 66.7779 141.396 69.5244C141.489 72.4092 143.315 75.0866 146.314 76.7318Z" fill="#5E5B5B"/>
<path d="M196.677 249.184L203.125 255.407L201.894 247.94L207.107 245.454L199.901 241.131L196.677 233.371L193.453 238.163L186.244 235.857L191.461 243.14L190.229 249.474L196.677 249.184Z" fill="#F2F2F2"/>
<path d="M173.037 238.162L179.485 244.385L178.254 236.92L183.47 234.434L176.261 230.109L173.037 222.348L169.813 227.143L162.604 224.835L167.821 232.123L166.589 238.454L173.037 238.162Z" fill="#F2F2F2"/>
<path d="M149.4 227.144L155.845 233.37L154.613 225.902L159.83 223.414L152.621 219.091L149.4 211.331L146.173 216.126L138.964 213.817L144.18 221.103L142.949 227.437L149.4 227.144Z" fill="#F2F2F2"/>
<path d="M371.134 328.996L378.031 335.655L376.715 327.664L382.293 325.003L374.582 320.378L371.134 312.072L367.682 317.203L359.968 314.733L365.549 322.528L364.234 329.307L371.134 328.996Z" fill="#F2F2F2"/>
<path d="M345.835 317.205L352.735 323.864L351.416 315.875L356.997 313.214L349.283 308.587L345.835 300.283L342.386 305.415L334.669 302.942L340.254 310.739L338.935 317.518L345.835 317.205Z" fill="#F2F2F2"/>
<defs>
<linearGradient id="paint0_linear_206_3" x1="370.184" y1="28.0844" x2="142.556" y2="3.04416" gradientUnits="userSpaceOnUse">
<stop stop-color="#212121"/>
<stop offset="1"/>
</linearGradient>
<linearGradient id="paint1_linear_206_3" x1="114.212" y1="5.93209" x2="114.212" y2="482.572" gradientUnits="userSpaceOnUse">
<stop stop-color="#969696"/>
<stop offset="1" stop-color="#5E5B5B"/>
</linearGradient>
<linearGradient id="paint2_linear_206_3" x1="130.215" y1="-254.514" x2="-117.554" y2="327.523" gradientUnits="userSpaceOnUse">
<stop stop-color="white"/>
<stop offset="1" stop-color="white"/>
</linearGradient>
<linearGradient id="paint3_linear_206_3" x1="121.174" y1="336.198" x2="121.174" y2="448.548" gradientUnits="userSpaceOnUse">
<stop stop-color="#1D1515"/>
<stop offset="1" stop-color="#212121"/>
</linearGradient>
<linearGradient id="paint4_linear_206_3" x1="228.028" y1="-484.997" x2="-408.732" y2="-46.7283" gradientUnits="userSpaceOnUse">
<stop/>
<stop offset="0.345242" stop-color="#5E5B5B"/>
<stop offset="0.703633"/>
<stop offset="0.848972" stop-color="#5E5B5B"/>
<stop offset="1" stop-color="#969696"/>
</linearGradient>
<linearGradient id="paint5_linear_206_3" x1="366.968" y1="15.1725" x2="106.939" y2="210.697" gradientUnits="userSpaceOnUse">
<stop stop-color="#5E5B5B"/>
<stop offset="1" stop-color="#969696"/>
</linearGradient>
<linearGradient id="paint6_linear_206_3" x1="263.359" y1="475.162" x2="264.866" y2="480.316" gradientUnits="userSpaceOnUse">
<stop stop-color="#5E5B5B"/>
<stop offset="1"/>
</linearGradient>
<linearGradient id="paint7_linear_206_3" x1="273.122" y1="478.238" x2="261.321" y2="478.238" gradientUnits="userSpaceOnUse">
<stop stop-color="#5E5B5B"/>
<stop offset="1"/>
</linearGradient>
<linearGradient id="paint8_linear_206_3" x1="224.188" y1="475.569" x2="224.188" y2="506.698" gradientUnits="userSpaceOnUse">
<stop offset="0.00520833" stop-color="#212121"/>
<stop offset="1"/>
</linearGradient>
<linearGradient id="paint9_linear_206_3" x1="234.169" y1="488.326" x2="220.405" y2="494.61" gradientUnits="userSpaceOnUse">
<stop stop-color="#5E5B5B"/>
<stop offset="1"/>
</linearGradient>
<linearGradient id="paint10_linear_206_3" x1="189.919" y1="344.192" x2="189.919" y2="372.874" gradientUnits="userSpaceOnUse">
<stop stop-color="#FAC0A6"/>
<stop offset="1" stop-color="#FCB49B"/>
</linearGradient>
<linearGradient id="paint11_linear_206_3" x1="186.033" y1="517.014" x2="186.033" y2="634.62" gradientUnits="userSpaceOnUse">
<stop stop-color="#FAC0A6"/>
<stop offset="1" stop-color="#FCB49B"/>
</linearGradient>
<linearGradient id="paint12_linear_206_3" x1="148.492" y1="506.242" x2="148.492" y2="623.341" gradientUnits="userSpaceOnUse">
<stop stop-color="#FAC0A6"/>
<stop offset="1" stop-color="#FCB49B"/>
</linearGradient>
<linearGradient id="paint13_linear_206_3" x1="128.775" y1="378.602" x2="128.775" y2="470.774" gradientUnits="userSpaceOnUse">
<stop stop-color="#FAC0A6"/>
<stop offset="1" stop-color="#FCB49B"/>
</linearGradient>
<linearGradient id="paint14_linear_206_3" x1="226.977" y1="516.675" x2="226.977" y2="469.396" gradientUnits="userSpaceOnUse">
<stop/>
<stop offset="0.859375" stop-color="#333333"/>
</linearGradient>
<linearGradient id="paint15_linear_206_3" x1="150.498" y1="377.733" x2="150.498" y2="474.555" gradientUnits="userSpaceOnUse">
<stop stop-color="#5E5B5B"/>
<stop offset="1"/>
</linearGradient>
<linearGradient id="paint16_linear_206_3" x1="185.411" y1="324.831" x2="167.401" y2="359.578" gradientUnits="userSpaceOnUse">
<stop stop-color="#E9DBBE"/>
<stop offset="0.0208333" stop-color="#E4D6BA"/>
<stop offset="1"/>
</linearGradient>
<linearGradient id="paint17_linear_206_3" x1="199.551" y1="381.667" x2="199.551" y2="504.367" gradientUnits="userSpaceOnUse">
<stop stop-color="#FAC0A6"/>
<stop offset="1" stop-color="#FCB49B"/>
</linearGradient>
<linearGradient id="paint18_linear_206_3" x1="170.477" y1="347.377" x2="159.193" y2="350.257" gradientUnits="userSpaceOnUse">
<stop stop-color="#E9DBBE"/>
<stop offset="1"/>
</linearGradient>
<linearGradient id="paint19_linear_206_3" x1="162.577" y1="346.118" x2="142.584" y2="355.458" gradientUnits="userSpaceOnUse">
<stop stop-color="#E9DBBE"/>
<stop offset="1"/>
</linearGradient>
<linearGradient id="paint20_linear_206_3" x1="42.1984" y1="207.45" x2="42.1984" y2="232.337" gradientUnits="userSpaceOnUse">
<stop stop-color="#FAC0A6"/>
<stop offset="1" stop-color="#FCB49B"/>
</linearGradient>
<linearGradient id="paint21_linear_206_3" x1="92.47" y1="459.806" x2="92.47" y2="351.958" gradientUnits="userSpaceOnUse">
<stop/>
<stop offset="1" stop-color="#333333"/>
</linearGradient>
<linearGradient id="paint22_linear_206_3" x1="82.3823" y1="246.24" x2="82.3823" y2="293.883" gradientUnits="userSpaceOnUse">
<stop stop-color="#FAC0A6"/>
<stop offset="1" stop-color="#FCB49B"/>
</linearGradient>
<linearGradient id="paint23_linear_206_3" x1="8.47461" y1="228.38" x2="8.47461" y2="333.672" gradientUnits="userSpaceOnUse">
<stop/>
<stop offset="1" stop-color="#5E5B5B"/>
</linearGradient>
<linearGradient id="paint24_linear_206_3" x1="45.296" y1="229.183" x2="74.875" y2="191.243" gradientUnits="userSpaceOnUse">
<stop stop-color="#5E5B5B"/>
<stop offset="1"/>
</linearGradient>
<linearGradient id="paint25_linear_206_3" x1="34.3017" y1="147.731" x2="-5.18166" y2="192.996" gradientUnits="userSpaceOnUse">
<stop stop-color="#969696"/>
<stop offset="1" stop-color="#5E5B5B"/>
</linearGradient>
<linearGradient id="paint26_linear_206_3" x1="21.695" y1="213.751" x2="63.7836" y2="176.031" gradientUnits="userSpaceOnUse">
<stop stop-color="#969696"/>
<stop offset="1"/>
</linearGradient>
<linearGradient id="paint27_linear_206_3" x1="20.4414" y1="219.425" x2="20.4414" y2="274.526" gradientUnits="userSpaceOnUse">
<stop stop-color="#969696"/>
<stop offset="1"/>
</linearGradient>
<linearGradient id="paint28_linear_206_3" x1="25.0441" y1="215.708" x2="25.0441" y2="245.775" gradientUnits="userSpaceOnUse">
<stop stop-color="#5E5B5B"/>
<stop offset="1"/>
</linearGradient>
</defs>
</svg>
