<svg width="208" height="75" viewBox="0 0 208 75" fill="none" xmlns="http://www.w3.org/2000/svg">
<path d="M36.3766 50.968C37.2697 50.968 38.1026 51.2256 38.8754 51.7408C39.6653 52.256 40.3007 52.9515 40.7816 53.8274C41.2625 54.7032 41.5029 55.6821 41.5029 56.764C41.5029 57.8287 41.2625 58.799 40.7816 59.6749C40.3007 60.5507 39.6653 61.2548 38.8754 61.7872C38.1026 62.3024 37.2697 62.56 36.3766 62.56H31.6368L31.8944 62.0963V67.4286C31.8944 67.8751 31.757 68.253 31.4822 68.5621C31.2075 68.854 30.8468 69 30.4003 69C29.971 69 29.6189 68.854 29.3442 68.5621C29.0694 68.253 28.932 67.8751 28.932 67.4286V52.5394C28.932 52.0929 29.078 51.7236 29.3699 51.4317C29.679 51.1226 30.0569 50.968 30.5034 50.968H36.3766ZM36.3766 59.6234C36.7029 59.6234 37.0206 59.486 37.3298 59.2112C37.6389 58.9364 37.8965 58.5844 38.1026 58.155C38.3086 57.7085 38.4117 57.2449 38.4117 56.764C38.4117 56.266 38.3086 55.8023 38.1026 55.373C37.8965 54.9436 37.6389 54.6002 37.3298 54.3426C37.0206 54.0678 36.7029 53.9304 36.3766 53.9304H31.5853L31.8944 53.4667V60.0355L31.611 59.6234H36.3766ZM46.3081 69C45.8273 69 45.3979 68.854 45.0201 68.5621C44.6423 68.253 44.4534 67.8751 44.4534 67.4286V52.5394C44.4534 52.0929 44.5994 51.7236 44.8913 51.4317C45.2004 51.1226 45.5783 50.968 46.0248 50.968H53.4436C54.3367 50.968 55.1696 51.2084 55.9424 51.6893C56.7323 52.153 57.3678 52.8055 57.8486 53.647C58.3295 54.4714 58.5699 55.4245 58.5699 56.5064C58.5699 57.159 58.4325 57.7944 58.1577 58.4126C57.9001 59.0309 57.5395 59.589 57.0758 60.087C56.6293 60.5851 56.1227 60.9715 55.556 61.2462L55.5817 60.6538C56.0626 60.9114 56.4576 61.2205 56.7667 61.5811C57.093 61.9246 57.342 62.3024 57.5137 62.7146C57.7026 63.1095 57.8143 63.5389 57.8486 64.0026C57.9173 64.4319 57.9602 64.8097 57.9774 65.136C58.0118 65.4623 58.0633 65.7371 58.132 65.9603C58.2178 66.1836 58.3724 66.3553 58.5956 66.4755C58.9735 66.6988 59.2053 67.0251 59.2912 67.4544C59.3942 67.8666 59.2998 68.2358 59.0078 68.5621C58.8189 68.7853 58.5785 68.9313 58.2865 69C57.9946 69.0515 57.7026 69.0515 57.4107 69C57.1187 68.9313 56.8783 68.8454 56.6894 68.7424C56.3975 68.5707 56.1055 68.3217 55.8136 67.9954C55.5216 67.6519 55.2812 67.1968 55.0923 66.6301C54.9206 66.0634 54.8347 65.3335 54.8347 64.4405C54.8347 64.1485 54.7832 63.8823 54.6801 63.6419C54.5771 63.3843 54.4311 63.1697 54.2422 62.9979C54.0533 62.809 53.8129 62.6716 53.5209 62.5858C53.229 62.4827 52.8855 62.4312 52.4905 62.4312H47.287L47.6734 61.8387V67.4286C47.6734 67.8751 47.5532 68.253 47.3128 68.5621C47.0723 68.854 46.7375 69 46.3081 69ZM47.3128 59.7779H53.3148C53.624 59.7779 53.9245 59.6405 54.2164 59.3658C54.5084 59.0738 54.7488 58.6874 54.9377 58.2066C55.1266 57.7085 55.2211 57.1676 55.2211 56.5837C55.2211 55.8281 55.015 55.2012 54.6028 54.7032C54.2079 54.188 53.7785 53.9304 53.3148 53.9304H47.3643L47.6734 53.1061V60.3962L47.3128 59.7779ZM78.4761 59.984C78.4761 61.272 78.2615 62.4741 77.8321 63.5904C77.4028 64.7067 76.7931 65.6941 76.0032 66.5528C75.2304 67.3943 74.303 68.0555 73.2211 68.5363C72.1563 69.0172 70.9886 69.2576 69.7177 69.2576C68.4469 69.2576 67.2791 69.0172 66.2144 68.5363C65.1496 68.0555 64.2223 67.3943 63.4323 66.5528C62.6595 65.6941 62.0584 64.7067 61.6291 63.5904C61.1998 62.4741 60.9851 61.272 60.9851 59.984C60.9851 58.696 61.1998 57.4939 61.6291 56.3776C62.0584 55.2613 62.6595 54.2825 63.4323 53.441C64.2223 52.5823 65.1496 51.9125 66.2144 51.4317C67.2791 50.9508 68.4469 50.7104 69.7177 50.7104C70.9886 50.7104 72.1563 50.9508 73.2211 51.4317C74.303 51.9125 75.2304 52.5823 76.0032 53.441C76.7931 54.2825 77.4028 55.2613 77.8321 56.3776C78.2615 57.4939 78.4761 58.696 78.4761 59.984ZM75.1273 59.984C75.1273 58.8334 74.8955 57.7944 74.4318 56.867C73.9681 55.9225 73.3327 55.1755 72.5256 54.6259C71.7184 54.0764 70.7825 53.8016 69.7177 53.8016C68.653 53.8016 67.717 54.0764 66.9099 54.6259C66.1027 55.1755 65.4673 55.9139 65.0036 56.8413C64.5571 57.7686 64.3339 58.8162 64.3339 59.984C64.3339 61.1346 64.5571 62.1822 65.0036 63.1267C65.4673 64.0541 66.1027 64.7925 66.9099 65.3421C67.717 65.8916 68.653 66.1664 69.7177 66.1664C70.7825 66.1664 71.7184 65.8916 72.5256 65.3421C73.3327 64.7925 73.9681 64.0541 74.4318 63.1267C74.8955 62.1822 75.1273 61.1346 75.1273 59.984ZM83.056 50.9422C83.2964 50.9422 83.5454 51.0109 83.803 51.1483C84.0778 51.2685 84.2839 51.4317 84.4213 51.6378L90.6809 61.272L89.3929 61.2205L95.8072 51.6378C96.1335 51.1741 96.5542 50.9422 97.0694 50.9422C97.4816 50.9422 97.8508 51.0882 98.1771 51.3802C98.5034 51.6721 98.6665 52.0499 98.6665 52.5136V67.4286C98.6665 67.8751 98.5206 68.253 98.2286 68.5621C97.9367 68.854 97.5503 69 97.0694 69C96.5886 69 96.1936 68.854 95.8845 68.5621C95.5925 68.253 95.4465 67.8751 95.4465 67.4286V55.2957L96.4512 55.5275L91.1961 63.5389C91.0416 63.7278 90.8441 63.8909 90.6037 64.0283C90.3804 64.1657 90.1486 64.2258 89.9081 64.2086C89.6849 64.2258 89.453 64.1657 89.2126 64.0283C88.9894 63.8909 88.8005 63.7278 88.6459 63.5389L83.7257 55.7594L84.3955 54.3941V67.4286C84.3955 67.8751 84.2581 68.253 83.9833 68.5621C83.7086 68.854 83.3479 69 82.9014 69C82.4721 69 82.12 68.854 81.8453 68.5621C81.5705 68.253 81.4331 67.8751 81.4331 67.4286V52.5136C81.4331 52.0843 81.5877 51.715 81.8968 51.4059C82.2231 51.0968 82.6095 50.9422 83.056 50.9422ZM104.111 50.968H112.74C113.187 50.968 113.556 51.114 113.848 51.4059C114.157 51.6807 114.312 52.0413 114.312 52.4878C114.312 52.9172 114.157 53.2692 113.848 53.544C113.556 53.8016 113.187 53.9304 112.74 53.9304H105.527L105.759 53.4925V58.5157L105.553 58.3096H111.581C112.027 58.3096 112.397 58.4556 112.689 58.7475C112.998 59.0223 113.152 59.3829 113.152 59.8294C113.152 60.2588 112.998 60.6108 112.689 60.8856C112.397 61.1432 112.027 61.272 111.581 61.272H105.63L105.759 61.0659V66.2694L105.553 66.0376H112.74C113.187 66.0376 113.556 66.1922 113.848 66.5013C114.157 66.7932 114.312 67.1367 114.312 67.5317C114.312 67.961 114.157 68.3131 113.848 68.5878C113.556 68.8626 113.187 69 112.74 69H104.111C103.664 69 103.286 68.854 102.977 68.5621C102.685 68.253 102.539 67.8751 102.539 67.4286V52.5394C102.539 52.0929 102.685 51.7236 102.977 51.4317C103.286 51.1226 103.664 50.968 104.111 50.968ZM123.386 69C122.905 69 122.51 68.854 122.201 68.5621C121.892 68.253 121.737 67.8751 121.737 67.4286V52.4878H125.086V67.4286C125.086 67.8751 124.923 68.253 124.597 68.5621C124.287 68.854 123.884 69 123.386 69ZM117.693 53.9304C117.246 53.9304 116.869 53.793 116.559 53.5182C116.268 53.2435 116.122 52.8828 116.122 52.4363C116.122 51.9898 116.268 51.6378 116.559 51.3802C116.869 51.1054 117.246 50.968 117.693 50.968H129.13C129.577 50.968 129.946 51.1054 130.238 51.3802C130.547 51.6549 130.702 52.0156 130.702 52.4621C130.702 52.9086 130.547 53.2692 130.238 53.544C129.946 53.8016 129.577 53.9304 129.13 53.9304H117.693ZM134.977 50.968H143.607C144.053 50.968 144.423 51.114 144.715 51.4059C145.024 51.6807 145.178 52.0413 145.178 52.4878C145.178 52.9172 145.024 53.2692 144.715 53.544C144.423 53.8016 144.053 53.9304 143.607 53.9304H136.394L136.626 53.4925V58.5157L136.42 58.3096H142.448C142.894 58.3096 143.263 58.4556 143.555 58.7475C143.864 59.0223 144.019 59.3829 144.019 59.8294C144.019 60.2588 143.864 60.6108 143.555 60.8856C143.263 61.1432 142.894 61.272 142.448 61.272H136.497L136.626 61.0659V66.2694L136.42 66.0376H143.607C144.053 66.0376 144.423 66.1922 144.715 66.5013C145.024 66.7932 145.178 67.1367 145.178 67.5317C145.178 67.961 145.024 68.3131 144.715 68.5878C144.423 68.8626 144.053 69 143.607 69H134.977C134.531 69 134.153 68.854 133.844 68.5621C133.552 68.253 133.406 67.8751 133.406 67.4286V52.5394C133.406 52.0929 133.552 51.7236 133.844 51.4317C134.153 51.1226 134.531 50.968 134.977 50.968ZM160.95 50.9422C161.397 50.9422 161.757 51.0968 162.032 51.4059C162.307 51.6979 162.444 52.0671 162.444 52.5136V61.8387C162.444 63.2641 162.135 64.5263 161.517 65.6254C160.916 66.7245 160.083 67.5832 159.018 68.2014C157.953 68.8197 156.717 69.1288 155.309 69.1288C153.901 69.1288 152.655 68.8197 151.574 68.2014C150.509 67.5832 149.667 66.7245 149.049 65.6254C148.448 64.5263 148.147 63.2641 148.147 61.8387V52.5136C148.147 52.0671 148.302 51.6979 148.611 51.4059C148.92 51.0968 149.315 50.9422 149.796 50.9422C150.191 50.9422 150.543 51.0968 150.852 51.4059C151.179 51.6979 151.342 52.0671 151.342 52.5136V61.8387C151.342 62.6974 151.522 63.4444 151.883 64.0798C152.26 64.6981 152.75 65.1789 153.351 65.5224C153.969 65.8659 154.622 66.0376 155.309 66.0376C156.047 66.0376 156.734 65.8659 157.37 65.5224C158.005 65.1789 158.52 64.6981 158.915 64.0798C159.31 63.4444 159.508 62.6974 159.508 61.8387V52.5136C159.508 52.0671 159.636 51.6979 159.894 51.4059C160.152 51.0968 160.504 50.9422 160.95 50.9422ZM171.855 69.2576C170.653 69.2576 169.571 69.1116 168.609 68.8197C167.647 68.5106 166.728 67.9782 165.853 67.2226C165.629 67.0337 165.458 66.819 165.337 66.5786C165.217 66.3381 165.157 66.0977 165.157 65.8573C165.157 65.4623 165.295 65.1188 165.569 64.8269C165.861 64.5178 166.222 64.3632 166.651 64.3632C166.977 64.3632 167.269 64.4662 167.527 64.6723C168.18 65.2047 168.824 65.6083 169.459 65.883C170.112 66.1578 170.91 66.2952 171.855 66.2952C172.49 66.2952 173.074 66.2007 173.606 66.0118C174.139 65.8058 174.568 65.5396 174.894 65.2133C175.221 64.8698 175.384 64.4834 175.384 64.0541C175.384 63.5389 175.229 63.101 174.92 62.7403C174.611 62.3797 174.139 62.0791 173.503 61.8387C172.868 61.5811 172.061 61.3836 171.082 61.2462C170.155 61.1089 169.339 60.9028 168.635 60.628C167.931 60.3361 167.338 59.9754 166.857 59.5461C166.394 59.0996 166.042 58.5844 165.801 58.0005C165.561 57.3994 165.44 56.7297 165.44 55.9912C165.44 54.8749 165.724 53.9218 166.291 53.1318C166.874 52.3419 167.656 51.7408 168.635 51.3286C169.614 50.9165 170.696 50.7104 171.88 50.7104C172.997 50.7104 174.027 50.8821 174.972 51.2256C175.933 51.5519 176.715 51.9726 177.316 52.4878C177.814 52.8828 178.063 53.3379 178.063 53.8531C178.063 54.2309 177.917 54.5744 177.625 54.8835C177.333 55.1926 176.99 55.3472 176.595 55.3472C176.337 55.3472 176.105 55.2699 175.899 55.1154C175.624 54.8749 175.255 54.6517 174.791 54.4456C174.328 54.2223 173.838 54.042 173.323 53.9046C172.808 53.7501 172.327 53.6728 171.88 53.6728C171.142 53.6728 170.515 53.7673 170 53.9562C169.502 54.1451 169.124 54.4027 168.867 54.729C168.609 55.0553 168.48 55.4331 168.48 55.8624C168.48 56.3776 168.626 56.8069 168.918 57.1504C169.227 57.4767 169.665 57.7429 170.232 57.949C170.799 58.1379 171.477 58.3096 172.267 58.4642C173.297 58.6531 174.199 58.8763 174.972 59.1339C175.762 59.3915 176.414 59.7264 176.929 60.1386C177.445 60.5335 177.831 61.0402 178.089 61.6584C178.346 62.2595 178.475 62.9979 178.475 63.8738C178.475 64.99 178.166 65.9517 177.548 66.7589C176.929 67.566 176.114 68.1843 175.1 68.6136C174.104 69.0429 173.023 69.2576 171.855 69.2576Z" fill="white"/>
<path d="M12.6446 10.6827C20.3292 13.2861 27.9881 14.5814 35.9347 14.5814C49.0634 14.5814 60.5415 10.9613 69.7734 8.04255C77.3326 5.65607 83.7076 3.61146 88.7234 4.21321C100.01 5.55795 101.752 20.6998 102.004 26.235H11.7481L12.6446 10.6827ZM119.638 4.23761C124.683 3.61146 131.023 5.68762 138.55 8.0741C147.783 10.9613 159.295 14.5814 172.421 14.5814C180.403 14.5814 188.063 13.3184 195.746 10.6827L196.617 26.2671H106.354C106.576 20.6998 108.313 5.55795 119.638 4.23761ZM200.991 28.3412L199.639 4.81001L196.904 5.84663C188.801 8.92015 180.788 10.4663 172.421 10.4663C159.913 10.4663 149.267 7.06959 139.87 4.11931C132.935 1.92632 126.898 0.0458508 121.644 0H121.215C120.505 0.00715256 119.81 0.0486031 119.127 0.129669C110.568 1.13547 106.319 7.569 104.163 14.075C102.036 7.569 97.7974 1.13547 89.2391 0.129669C88.5063 0.0436516 87.7594 0.0027504 86.9965 0H86.7088C81.4333 0.0530052 75.4008 1.95438 68.4896 4.11931C59.0655 7.06959 48.4186 10.4298 35.9347 10.4663C27.5685 10.4663 19.5641 8.92015 11.4517 5.84663L8.71535 4.81001L7.36623 28.3412H0V32H208V28.3412H200.991Z" fill="white"/>
</svg>
