<svg width="208" height="46" viewBox="0 0 208 46" fill="none" xmlns="http://www.w3.org/2000/svg">
<path d="M64.3766 10.968C65.2697 10.968 66.1026 11.2256 66.8754 11.7408C67.6653 12.256 68.3007 12.9515 68.7816 13.8274C69.2625 14.7032 69.5029 15.6821 69.5029 16.764C69.5029 17.8287 69.2625 18.799 68.7816 19.6749C68.3007 20.5507 67.6653 21.2548 66.8754 21.7872C66.1026 22.3024 65.2697 22.56 64.3766 22.56H59.6368L59.8944 22.0963V27.4286C59.8944 27.8751 59.757 28.253 59.4822 28.5621C59.2075 28.854 58.8468 29 58.4003 29C57.971 29 57.6189 28.854 57.3442 28.5621C57.0694 28.253 56.932 27.8751 56.932 27.4286V12.5394C56.932 12.0929 57.078 11.7236 57.3699 11.4317C57.679 11.1226 58.0569 10.968 58.5034 10.968H64.3766ZM64.3766 19.6234C64.7029 19.6234 65.0206 19.486 65.3298 19.2112C65.6389 18.9364 65.8965 18.5844 66.1026 18.155C66.3086 17.7085 66.4117 17.2449 66.4117 16.764C66.4117 16.266 66.3086 15.8023 66.1026 15.373C65.8965 14.9436 65.6389 14.6002 65.3298 14.3426C65.0206 14.0678 64.7029 13.9304 64.3766 13.9304H59.5853L59.8944 13.4667V20.0355L59.611 19.6234H64.3766ZM74.3081 29C73.8273 29 73.3979 28.854 73.0201 28.5621C72.6423 28.253 72.4534 27.8751 72.4534 27.4286V12.5394C72.4534 12.0929 72.5994 11.7236 72.8913 11.4317C73.2004 11.1226 73.5783 10.968 74.0248 10.968H81.4436C82.3367 10.968 83.1696 11.2084 83.9424 11.6893C84.7323 12.153 85.3678 12.8055 85.8486 13.647C86.3295 14.4714 86.5699 15.4245 86.5699 16.5064C86.5699 17.159 86.4325 17.7944 86.1577 18.4126C85.9001 19.0309 85.5395 19.589 85.0758 20.087C84.6293 20.5851 84.1227 20.9715 83.556 21.2462L83.5817 20.6538C84.0626 20.9114 84.4576 21.2205 84.7667 21.5811C85.093 21.9246 85.342 22.3024 85.5137 22.7146C85.7026 23.1095 85.8143 23.5389 85.8486 24.0026C85.9173 24.4319 85.9602 24.8097 85.9774 25.136C86.0118 25.4623 86.0633 25.7371 86.132 25.9603C86.2178 26.1836 86.3724 26.3553 86.5956 26.4755C86.9735 26.6988 87.2053 27.0251 87.2912 27.4544C87.3942 27.8666 87.2998 28.2358 87.0078 28.5621C86.8189 28.7853 86.5785 28.9313 86.2865 29C85.9946 29.0515 85.7026 29.0515 85.4107 29C85.1187 28.9313 84.8783 28.8454 84.6894 28.7424C84.3975 28.5707 84.1055 28.3217 83.8136 27.9954C83.5216 27.6519 83.2812 27.1968 83.0923 26.6301C82.9206 26.0634 82.8347 25.3335 82.8347 24.4405C82.8347 24.1485 82.7832 23.8823 82.6801 23.6419C82.5771 23.3843 82.4311 23.1697 82.2422 22.9979C82.0533 22.809 81.8129 22.6716 81.5209 22.5858C81.229 22.4827 80.8855 22.4312 80.4905 22.4312H75.287L75.6734 21.8387V27.4286C75.6734 27.8751 75.5532 28.253 75.3128 28.5621C75.0723 28.854 74.7375 29 74.3081 29ZM75.3128 19.7779H81.3148C81.624 19.7779 81.9245 19.6405 82.2164 19.3658C82.5084 19.0738 82.7488 18.6874 82.9377 18.2066C83.1266 17.7085 83.2211 17.1676 83.2211 16.5837C83.2211 15.8281 83.015 15.2012 82.6028 14.7032C82.2079 14.188 81.7785 13.9304 81.3148 13.9304H75.3643L75.6734 13.1061V20.3962L75.3128 19.7779ZM106.476 19.984C106.476 21.272 106.261 22.4741 105.832 23.5904C105.403 24.7067 104.793 25.6941 104.003 26.5528C103.23 27.3943 102.303 28.0555 101.221 28.5363C100.156 29.0172 98.9886 29.2576 97.7177 29.2576C96.4469 29.2576 95.2791 29.0172 94.2144 28.5363C93.1496 28.0555 92.2223 27.3943 91.4323 26.5528C90.6595 25.6941 90.0584 24.7067 89.6291 23.5904C89.1998 22.4741 88.9851 21.272 88.9851 19.984C88.9851 18.696 89.1998 17.4939 89.6291 16.3776C90.0584 15.2613 90.6595 14.2825 91.4323 13.441C92.2223 12.5823 93.1496 11.9125 94.2144 11.4317C95.2791 10.9508 96.4469 10.7104 97.7177 10.7104C98.9886 10.7104 100.156 10.9508 101.221 11.4317C102.303 11.9125 103.23 12.5823 104.003 13.441C104.793 14.2825 105.403 15.2613 105.832 16.3776C106.261 17.4939 106.476 18.696 106.476 19.984ZM103.127 19.984C103.127 18.8334 102.895 17.7944 102.432 16.867C101.968 15.9225 101.333 15.1755 100.526 14.6259C99.7184 14.0764 98.7825 13.8016 97.7177 13.8016C96.653 13.8016 95.717 14.0764 94.9099 14.6259C94.1027 15.1755 93.4673 15.9139 93.0036 16.8413C92.5571 17.7686 92.3339 18.8162 92.3339 19.984C92.3339 21.1346 92.5571 22.1822 93.0036 23.1267C93.4673 24.0541 94.1027 24.7925 94.9099 25.3421C95.717 25.8916 96.653 26.1664 97.7177 26.1664C98.7825 26.1664 99.7184 25.8916 100.526 25.3421C101.333 24.7925 101.968 24.0541 102.432 23.1267C102.895 22.1822 103.127 21.1346 103.127 19.984ZM111.056 10.9422C111.296 10.9422 111.545 11.0109 111.803 11.1483C112.078 11.2685 112.284 11.4317 112.421 11.6378L118.681 21.272L117.393 21.2205L123.807 11.6378C124.133 11.1741 124.554 10.9422 125.069 10.9422C125.482 10.9422 125.851 11.0882 126.177 11.3802C126.503 11.6721 126.667 12.0499 126.667 12.5136V27.4286C126.667 27.8751 126.521 28.253 126.229 28.5621C125.937 28.854 125.55 29 125.069 29C124.589 29 124.194 28.854 123.884 28.5621C123.593 28.253 123.447 27.8751 123.447 27.4286V15.2957L124.451 15.5275L119.196 23.5389C119.042 23.7278 118.844 23.8909 118.604 24.0283C118.38 24.1657 118.149 24.2258 117.908 24.2086C117.685 24.2258 117.453 24.1657 117.213 24.0283C116.989 23.8909 116.8 23.7278 116.646 23.5389L111.726 15.7594L112.395 14.3941V27.4286C112.395 27.8751 112.258 28.253 111.983 28.5621C111.709 28.854 111.348 29 110.901 29C110.472 29 110.12 28.854 109.845 28.5621C109.57 28.253 109.433 27.8751 109.433 27.4286V12.5136C109.433 12.0843 109.588 11.715 109.897 11.4059C110.223 11.0968 110.609 10.9422 111.056 10.9422ZM132.111 10.968H140.74C141.187 10.968 141.556 11.114 141.848 11.4059C142.157 11.6807 142.312 12.0413 142.312 12.4878C142.312 12.9172 142.157 13.2692 141.848 13.544C141.556 13.8016 141.187 13.9304 140.74 13.9304H133.527L133.759 13.4925V18.5157L133.553 18.3096H139.581C140.027 18.3096 140.397 18.4556 140.689 18.7475C140.998 19.0223 141.152 19.3829 141.152 19.8294C141.152 20.2588 140.998 20.6108 140.689 20.8856C140.397 21.1432 140.027 21.272 139.581 21.272H133.63L133.759 21.0659V26.2694L133.553 26.0376H140.74C141.187 26.0376 141.556 26.1922 141.848 26.5013C142.157 26.7932 142.312 27.1367 142.312 27.5317C142.312 27.961 142.157 28.3131 141.848 28.5878C141.556 28.8626 141.187 29 140.74 29H132.111C131.664 29 131.286 28.854 130.977 28.5621C130.685 28.253 130.539 27.8751 130.539 27.4286V12.5394C130.539 12.0929 130.685 11.7236 130.977 11.4317C131.286 11.1226 131.664 10.968 132.111 10.968ZM151.386 29C150.905 29 150.51 28.854 150.201 28.5621C149.892 28.253 149.737 27.8751 149.737 27.4286V12.4878H153.086V27.4286C153.086 27.8751 152.923 28.253 152.597 28.5621C152.287 28.854 151.884 29 151.386 29ZM145.693 13.9304C145.246 13.9304 144.869 13.793 144.559 13.5182C144.268 13.2435 144.122 12.8828 144.122 12.4363C144.122 11.9898 144.268 11.6378 144.559 11.3802C144.869 11.1054 145.246 10.968 145.693 10.968H157.13C157.577 10.968 157.946 11.1054 158.238 11.3802C158.547 11.6549 158.702 12.0156 158.702 12.4621C158.702 12.9086 158.547 13.2692 158.238 13.544C157.946 13.8016 157.577 13.9304 157.13 13.9304H145.693ZM162.977 10.968H171.607C172.053 10.968 172.423 11.114 172.715 11.4059C173.024 11.6807 173.178 12.0413 173.178 12.4878C173.178 12.9172 173.024 13.2692 172.715 13.544C172.423 13.8016 172.053 13.9304 171.607 13.9304H164.394L164.626 13.4925V18.5157L164.42 18.3096H170.448C170.894 18.3096 171.263 18.4556 171.555 18.7475C171.864 19.0223 172.019 19.3829 172.019 19.8294C172.019 20.2588 171.864 20.6108 171.555 20.8856C171.263 21.1432 170.894 21.272 170.448 21.272H164.497L164.626 21.0659V26.2694L164.42 26.0376H171.607C172.053 26.0376 172.423 26.1922 172.715 26.5013C173.024 26.7932 173.178 27.1367 173.178 27.5317C173.178 27.961 173.024 28.3131 172.715 28.5878C172.423 28.8626 172.053 29 171.607 29H162.977C162.531 29 162.153 28.854 161.844 28.5621C161.552 28.253 161.406 27.8751 161.406 27.4286V12.5394C161.406 12.0929 161.552 11.7236 161.844 11.4317C162.153 11.1226 162.531 10.968 162.977 10.968ZM188.95 10.9422C189.397 10.9422 189.757 11.0968 190.032 11.4059C190.307 11.6979 190.444 12.0671 190.444 12.5136V21.8387C190.444 23.2641 190.135 24.5263 189.517 25.6254C188.916 26.7245 188.083 27.5832 187.018 28.2014C185.953 28.8197 184.717 29.1288 183.309 29.1288C181.901 29.1288 180.655 28.8197 179.574 28.2014C178.509 27.5832 177.667 26.7245 177.049 25.6254C176.448 24.5263 176.147 23.2641 176.147 21.8387V12.5136C176.147 12.0671 176.302 11.6979 176.611 11.4059C176.92 11.0968 177.315 10.9422 177.796 10.9422C178.191 10.9422 178.543 11.0968 178.852 11.4059C179.179 11.6979 179.342 12.0671 179.342 12.5136V21.8387C179.342 22.6974 179.522 23.4444 179.883 24.0798C180.26 24.6981 180.75 25.1789 181.351 25.5224C181.969 25.8659 182.622 26.0376 183.309 26.0376C184.047 26.0376 184.734 25.8659 185.37 25.5224C186.005 25.1789 186.52 24.6981 186.915 24.0798C187.31 23.4444 187.508 22.6974 187.508 21.8387V12.5136C187.508 12.0671 187.636 11.6979 187.894 11.4059C188.152 11.0968 188.504 10.9422 188.95 10.9422ZM199.855 29.2576C198.653 29.2576 197.571 29.1116 196.609 28.8197C195.647 28.5106 194.728 27.9782 193.853 27.2226C193.629 27.0337 193.458 26.819 193.337 26.5786C193.217 26.3381 193.157 26.0977 193.157 25.8573C193.157 25.4623 193.295 25.1188 193.569 24.8269C193.861 24.5178 194.222 24.3632 194.651 24.3632C194.977 24.3632 195.269 24.4662 195.527 24.6723C196.18 25.2047 196.824 25.6083 197.459 25.883C198.112 26.1578 198.91 26.2952 199.855 26.2952C200.49 26.2952 201.074 26.2007 201.606 26.0118C202.139 25.8058 202.568 25.5396 202.894 25.2133C203.221 24.8698 203.384 24.4834 203.384 24.0541C203.384 23.5389 203.229 23.101 202.92 22.7403C202.611 22.3797 202.139 22.0791 201.503 21.8387C200.868 21.5811 200.061 21.3836 199.082 21.2462C198.155 21.1089 197.339 20.9028 196.635 20.628C195.931 20.3361 195.338 19.9754 194.857 19.5461C194.394 19.0996 194.042 18.5844 193.801 18.0005C193.561 17.3994 193.44 16.7297 193.44 15.9912C193.44 14.8749 193.724 13.9218 194.291 13.1318C194.874 12.3419 195.656 11.7408 196.635 11.3286C197.614 10.9165 198.696 10.7104 199.88 10.7104C200.997 10.7104 202.027 10.8821 202.972 11.2256C203.933 11.5519 204.715 11.9726 205.316 12.4878C205.814 12.8828 206.063 13.3379 206.063 13.8531C206.063 14.2309 205.917 14.5744 205.625 14.8835C205.333 15.1926 204.99 15.3472 204.595 15.3472C204.337 15.3472 204.105 15.2699 203.899 15.1154C203.624 14.8749 203.255 14.6517 202.791 14.4456C202.328 14.2223 201.838 14.042 201.323 13.9046C200.808 13.7501 200.327 13.6728 199.88 13.6728C199.142 13.6728 198.515 13.7673 198 13.9562C197.502 14.1451 197.124 14.4027 196.867 14.729C196.609 15.0553 196.48 15.4331 196.48 15.8624C196.48 16.3776 196.626 16.8069 196.918 17.1504C197.227 17.4767 197.665 17.7429 198.232 17.949C198.799 18.1379 199.477 18.3096 200.267 18.4642C201.297 18.6531 202.199 18.8763 202.972 19.1339C203.762 19.3915 204.414 19.7264 204.929 20.1386C205.445 20.5335 205.831 21.0402 206.089 21.6584C206.346 22.2595 206.475 22.9979 206.475 23.8738C206.475 24.99 206.166 25.9517 205.548 26.7589C204.929 27.566 204.114 28.1843 203.1 28.6136C202.104 29.0429 201.023 29.2576 199.855 29.2576Z" fill="#F8F8F8"/>
<g filter="url(#filter0_d_320_9)">
<rect x="4" width="41" height="38" rx="12" fill="#5D96D9"/>
</g>
<path d="M26.3766 10.968C27.2697 10.968 28.1026 11.2256 28.8754 11.7408C29.6653 12.256 30.3007 12.9515 30.7816 13.8274C31.2625 14.7032 31.5029 15.6821 31.5029 16.764C31.5029 17.8287 31.2625 18.799 30.7816 19.6749C30.3007 20.5507 29.6653 21.2548 28.8754 21.7872C28.1026 22.3024 27.2697 22.56 26.3766 22.56H21.6368L21.8944 22.0963V27.4286C21.8944 27.8751 21.757 28.253 21.4822 28.5621C21.2075 28.854 20.8468 29 20.4003 29C19.971 29 19.6189 28.854 19.3442 28.5621C19.0694 28.253 18.932 27.8751 18.932 27.4286V12.5394C18.932 12.0929 19.078 11.7236 19.3699 11.4317C19.679 11.1226 20.0569 10.968 20.5034 10.968H26.3766ZM26.3766 19.6234C26.7029 19.6234 27.0206 19.486 27.3298 19.2112C27.6389 18.9364 27.8965 18.5844 28.1026 18.155C28.3086 17.7085 28.4117 17.2449 28.4117 16.764C28.4117 16.266 28.3086 15.8023 28.1026 15.373C27.8965 14.9436 27.6389 14.6002 27.3298 14.3426C27.0206 14.0678 26.7029 13.9304 26.3766 13.9304H21.5853L21.8944 13.4667V20.0355L21.611 19.6234H26.3766Z" fill="#F8F8F8"/>
<defs>
<filter id="filter0_d_320_9" x="0" y="0" width="49" height="46" filterUnits="userSpaceOnUse" color-interpolation-filters="sRGB">
<feFlood flood-opacity="0" result="BackgroundImageFix"/>
<feColorMatrix in="SourceAlpha" type="matrix" values="0 0 0 0 0 0 0 0 0 0 0 0 0 0 0 0 0 0 127 0" result="hardAlpha"/>
<feOffset dy="4"/>
<feGaussianBlur stdDeviation="2"/>
<feComposite in2="hardAlpha" operator="out"/>
<feColorMatrix type="matrix" values="0 0 0 0 0 0 0 0 0 0 0 0 0 0 0 0 0 0 0.25 0"/>
<feBlend mode="normal" in2="BackgroundImageFix" result="effect1_dropShadow_320_9"/>
<feBlend mode="normal" in="SourceGraphic" in2="effect1_dropShadow_320_9" result="shape"/>
</filter>
</defs>
</svg>
