<svg width="204" height="38" viewBox="0 0 204 38" fill="none" xmlns="http://www.w3.org/2000/svg">
<path d="M60.3766 10.968C61.2697 10.968 62.1026 11.2256 62.8754 11.7408C63.6653 12.256 64.3007 12.9515 64.7816 13.8274C65.2625 14.7032 65.5029 15.6821 65.5029 16.764C65.5029 17.8287 65.2625 18.799 64.7816 19.6749C64.3007 20.5507 63.6653 21.2548 62.8754 21.7872C62.1026 22.3024 61.2697 22.56 60.3766 22.56H55.6368L55.8944 22.0963V27.4286C55.8944 27.8751 55.757 28.253 55.4822 28.5621C55.2075 28.854 54.8468 29 54.4003 29C53.971 29 53.6189 28.854 53.3442 28.5621C53.0694 28.253 52.932 27.8751 52.932 27.4286V12.5394C52.932 12.0929 53.078 11.7236 53.3699 11.4317C53.679 11.1226 54.0569 10.968 54.5034 10.968H60.3766ZM60.3766 19.6234C60.7029 19.6234 61.0206 19.486 61.3298 19.2112C61.6389 18.9364 61.8965 18.5844 62.1026 18.155C62.3086 17.7085 62.4117 17.2449 62.4117 16.764C62.4117 16.266 62.3086 15.8023 62.1026 15.373C61.8965 14.9436 61.6389 14.6002 61.3298 14.3426C61.0206 14.0678 60.7029 13.9304 60.3766 13.9304H55.5853L55.8944 13.4667V20.0355L55.611 19.6234H60.3766ZM70.3081 29C69.8273 29 69.3979 28.854 69.0201 28.5621C68.6423 28.253 68.4534 27.8751 68.4534 27.4286V12.5394C68.4534 12.0929 68.5994 11.7236 68.8913 11.4317C69.2004 11.1226 69.5783 10.968 70.0248 10.968H77.4436C78.3367 10.968 79.1696 11.2084 79.9424 11.6893C80.7323 12.153 81.3678 12.8055 81.8486 13.647C82.3295 14.4714 82.5699 15.4245 82.5699 16.5064C82.5699 17.159 82.4325 17.7944 82.1577 18.4126C81.9001 19.0309 81.5395 19.589 81.0758 20.087C80.6293 20.5851 80.1227 20.9715 79.556 21.2462L79.5817 20.6538C80.0626 20.9114 80.4576 21.2205 80.7667 21.5811C81.093 21.9246 81.342 22.3024 81.5137 22.7146C81.7026 23.1095 81.8143 23.5389 81.8486 24.0026C81.9173 24.4319 81.9602 24.8097 81.9774 25.136C82.0118 25.4623 82.0633 25.7371 82.132 25.9603C82.2178 26.1836 82.3724 26.3553 82.5956 26.4755C82.9735 26.6988 83.2053 27.0251 83.2912 27.4544C83.3942 27.8666 83.2998 28.2358 83.0078 28.5621C82.8189 28.7853 82.5785 28.9313 82.2865 29C81.9946 29.0515 81.7026 29.0515 81.4107 29C81.1187 28.9313 80.8783 28.8454 80.6894 28.7424C80.3975 28.5707 80.1055 28.3217 79.8136 27.9954C79.5216 27.6519 79.2812 27.1968 79.0923 26.6301C78.9206 26.0634 78.8347 25.3335 78.8347 24.4405C78.8347 24.1485 78.7832 23.8823 78.6801 23.6419C78.5771 23.3843 78.4311 23.1697 78.2422 22.9979C78.0533 22.809 77.8129 22.6716 77.5209 22.5858C77.229 22.4827 76.8855 22.4312 76.4905 22.4312H71.287L71.6734 21.8387V27.4286C71.6734 27.8751 71.5532 28.253 71.3128 28.5621C71.0723 28.854 70.7375 29 70.3081 29ZM71.3128 19.7779H77.3148C77.624 19.7779 77.9245 19.6405 78.2164 19.3658C78.5084 19.0738 78.7488 18.6874 78.9377 18.2066C79.1266 17.7085 79.2211 17.1676 79.2211 16.5837C79.2211 15.8281 79.015 15.2012 78.6028 14.7032C78.2079 14.188 77.7785 13.9304 77.3148 13.9304H71.3643L71.6734 13.1061V20.3962L71.3128 19.7779ZM102.476 19.984C102.476 21.272 102.261 22.4741 101.832 23.5904C101.403 24.7067 100.793 25.6941 100.003 26.5528C99.2304 27.3943 98.303 28.0555 97.2211 28.5363C96.1563 29.0172 94.9886 29.2576 93.7177 29.2576C92.4469 29.2576 91.2791 29.0172 90.2144 28.5363C89.1496 28.0555 88.2223 27.3943 87.4323 26.5528C86.6595 25.6941 86.0584 24.7067 85.6291 23.5904C85.1998 22.4741 84.9851 21.272 84.9851 19.984C84.9851 18.696 85.1998 17.4939 85.6291 16.3776C86.0584 15.2613 86.6595 14.2825 87.4323 13.441C88.2223 12.5823 89.1496 11.9125 90.2144 11.4317C91.2791 10.9508 92.4469 10.7104 93.7177 10.7104C94.9886 10.7104 96.1563 10.9508 97.2211 11.4317C98.303 11.9125 99.2304 12.5823 100.003 13.441C100.793 14.2825 101.403 15.2613 101.832 16.3776C102.261 17.4939 102.476 18.696 102.476 19.984ZM99.1273 19.984C99.1273 18.8334 98.8955 17.7944 98.4318 16.867C97.9681 15.9225 97.3327 15.1755 96.5256 14.6259C95.7184 14.0764 94.7825 13.8016 93.7177 13.8016C92.653 13.8016 91.717 14.0764 90.9099 14.6259C90.1027 15.1755 89.4673 15.9139 89.0036 16.8413C88.5571 17.7686 88.3339 18.8162 88.3339 19.984C88.3339 21.1346 88.5571 22.1822 89.0036 23.1267C89.4673 24.0541 90.1027 24.7925 90.9099 25.3421C91.717 25.8916 92.653 26.1664 93.7177 26.1664C94.7825 26.1664 95.7184 25.8916 96.5256 25.3421C97.3327 24.7925 97.9681 24.0541 98.4318 23.1267C98.8955 22.1822 99.1273 21.1346 99.1273 19.984ZM107.056 10.9422C107.296 10.9422 107.545 11.0109 107.803 11.1483C108.078 11.2685 108.284 11.4317 108.421 11.6378L114.681 21.272L113.393 21.2205L119.807 11.6378C120.133 11.1741 120.554 10.9422 121.069 10.9422C121.482 10.9422 121.851 11.0882 122.177 11.3802C122.503 11.6721 122.667 12.0499 122.667 12.5136V27.4286C122.667 27.8751 122.521 28.253 122.229 28.5621C121.937 28.854 121.55 29 121.069 29C120.589 29 120.194 28.854 119.884 28.5621C119.593 28.253 119.447 27.8751 119.447 27.4286V15.2957L120.451 15.5275L115.196 23.5389C115.042 23.7278 114.844 23.8909 114.604 24.0283C114.38 24.1657 114.149 24.2258 113.908 24.2086C113.685 24.2258 113.453 24.1657 113.213 24.0283C112.989 23.8909 112.8 23.7278 112.646 23.5389L107.726 15.7594L108.395 14.3941V27.4286C108.395 27.8751 108.258 28.253 107.983 28.5621C107.709 28.854 107.348 29 106.901 29C106.472 29 106.12 28.854 105.845 28.5621C105.57 28.253 105.433 27.8751 105.433 27.4286V12.5136C105.433 12.0843 105.588 11.715 105.897 11.4059C106.223 11.0968 106.609 10.9422 107.056 10.9422ZM128.111 10.968H136.74C137.187 10.968 137.556 11.114 137.848 11.4059C138.157 11.6807 138.312 12.0413 138.312 12.4878C138.312 12.9172 138.157 13.2692 137.848 13.544C137.556 13.8016 137.187 13.9304 136.74 13.9304H129.527L129.759 13.4925V18.5157L129.553 18.3096H135.581C136.027 18.3096 136.397 18.4556 136.689 18.7475C136.998 19.0223 137.152 19.3829 137.152 19.8294C137.152 20.2588 136.998 20.6108 136.689 20.8856C136.397 21.1432 136.027 21.272 135.581 21.272H129.63L129.759 21.0659V26.2694L129.553 26.0376H136.74C137.187 26.0376 137.556 26.1922 137.848 26.5013C138.157 26.7932 138.312 27.1367 138.312 27.5317C138.312 27.961 138.157 28.3131 137.848 28.5878C137.556 28.8626 137.187 29 136.74 29H128.111C127.664 29 127.286 28.854 126.977 28.5621C126.685 28.253 126.539 27.8751 126.539 27.4286V12.5394C126.539 12.0929 126.685 11.7236 126.977 11.4317C127.286 11.1226 127.664 10.968 128.111 10.968ZM147.386 29C146.905 29 146.51 28.854 146.201 28.5621C145.892 28.253 145.737 27.8751 145.737 27.4286V12.4878H149.086V27.4286C149.086 27.8751 148.923 28.253 148.597 28.5621C148.287 28.854 147.884 29 147.386 29ZM141.693 13.9304C141.246 13.9304 140.869 13.793 140.559 13.5182C140.268 13.2435 140.122 12.8828 140.122 12.4363C140.122 11.9898 140.268 11.6378 140.559 11.3802C140.869 11.1054 141.246 10.968 141.693 10.968H153.13C153.577 10.968 153.946 11.1054 154.238 11.3802C154.547 11.6549 154.702 12.0156 154.702 12.4621C154.702 12.9086 154.547 13.2692 154.238 13.544C153.946 13.8016 153.577 13.9304 153.13 13.9304H141.693ZM158.977 10.968H167.607C168.053 10.968 168.423 11.114 168.715 11.4059C169.024 11.6807 169.178 12.0413 169.178 12.4878C169.178 12.9172 169.024 13.2692 168.715 13.544C168.423 13.8016 168.053 13.9304 167.607 13.9304H160.394L160.626 13.4925V18.5157L160.42 18.3096H166.448C166.894 18.3096 167.263 18.4556 167.555 18.7475C167.864 19.0223 168.019 19.3829 168.019 19.8294C168.019 20.2588 167.864 20.6108 167.555 20.8856C167.263 21.1432 166.894 21.272 166.448 21.272H160.497L160.626 21.0659V26.2694L160.42 26.0376H167.607C168.053 26.0376 168.423 26.1922 168.715 26.5013C169.024 26.7932 169.178 27.1367 169.178 27.5317C169.178 27.961 169.024 28.3131 168.715 28.5878C168.423 28.8626 168.053 29 167.607 29H158.977C158.531 29 158.153 28.854 157.844 28.5621C157.552 28.253 157.406 27.8751 157.406 27.4286V12.5394C157.406 12.0929 157.552 11.7236 157.844 11.4317C158.153 11.1226 158.531 10.968 158.977 10.968ZM184.95 10.9422C185.397 10.9422 185.757 11.0968 186.032 11.4059C186.307 11.6979 186.444 12.0671 186.444 12.5136V21.8387C186.444 23.2641 186.135 24.5263 185.517 25.6254C184.916 26.7245 184.083 27.5832 183.018 28.2014C181.953 28.8197 180.717 29.1288 179.309 29.1288C177.901 29.1288 176.655 28.8197 175.574 28.2014C174.509 27.5832 173.667 26.7245 173.049 25.6254C172.448 24.5263 172.147 23.2641 172.147 21.8387V12.5136C172.147 12.0671 172.302 11.6979 172.611 11.4059C172.92 11.0968 173.315 10.9422 173.796 10.9422C174.191 10.9422 174.543 11.0968 174.852 11.4059C175.179 11.6979 175.342 12.0671 175.342 12.5136V21.8387C175.342 22.6974 175.522 23.4444 175.883 24.0798C176.26 24.6981 176.75 25.1789 177.351 25.5224C177.969 25.8659 178.622 26.0376 179.309 26.0376C180.047 26.0376 180.734 25.8659 181.37 25.5224C182.005 25.1789 182.52 24.6981 182.915 24.0798C183.31 23.4444 183.508 22.6974 183.508 21.8387V12.5136C183.508 12.0671 183.636 11.6979 183.894 11.4059C184.152 11.0968 184.504 10.9422 184.95 10.9422ZM195.855 29.2576C194.653 29.2576 193.571 29.1116 192.609 28.8197C191.647 28.5106 190.728 27.9782 189.853 27.2226C189.629 27.0337 189.458 26.819 189.337 26.5786C189.217 26.3381 189.157 26.0977 189.157 25.8573C189.157 25.4623 189.295 25.1188 189.569 24.8269C189.861 24.5178 190.222 24.3632 190.651 24.3632C190.977 24.3632 191.269 24.4662 191.527 24.6723C192.18 25.2047 192.824 25.6083 193.459 25.883C194.112 26.1578 194.91 26.2952 195.855 26.2952C196.49 26.2952 197.074 26.2007 197.606 26.0118C198.139 25.8058 198.568 25.5396 198.894 25.2133C199.221 24.8698 199.384 24.4834 199.384 24.0541C199.384 23.5389 199.229 23.101 198.92 22.7403C198.611 22.3797 198.139 22.0791 197.503 21.8387C196.868 21.5811 196.061 21.3836 195.082 21.2462C194.155 21.1089 193.339 20.9028 192.635 20.628C191.931 20.3361 191.338 19.9754 190.857 19.5461C190.394 19.0996 190.042 18.5844 189.801 18.0005C189.561 17.3994 189.44 16.7297 189.44 15.9912C189.44 14.8749 189.724 13.9218 190.291 13.1318C190.874 12.3419 191.656 11.7408 192.635 11.3286C193.614 10.9165 194.696 10.7104 195.88 10.7104C196.997 10.7104 198.027 10.8821 198.972 11.2256C199.933 11.5519 200.715 11.9726 201.316 12.4878C201.814 12.8828 202.063 13.3379 202.063 13.8531C202.063 14.2309 201.917 14.5744 201.625 14.8835C201.333 15.1926 200.99 15.3472 200.595 15.3472C200.337 15.3472 200.105 15.2699 199.899 15.1154C199.624 14.8749 199.255 14.6517 198.791 14.4456C198.328 14.2223 197.838 14.042 197.323 13.9046C196.808 13.7501 196.327 13.6728 195.88 13.6728C195.142 13.6728 194.515 13.7673 194 13.9562C193.502 14.1451 193.124 14.4027 192.867 14.729C192.609 15.0553 192.48 15.4331 192.48 15.8624C192.48 16.3776 192.626 16.8069 192.918 17.1504C193.227 17.4767 193.665 17.7429 194.232 17.949C194.799 18.1379 195.477 18.3096 196.267 18.4642C197.297 18.6531 198.199 18.8763 198.972 19.1339C199.762 19.3915 200.414 19.7264 200.929 20.1386C201.445 20.5335 201.831 21.0402 202.089 21.6584C202.346 22.2595 202.475 22.9979 202.475 23.8738C202.475 24.99 202.166 25.9517 201.548 26.7589C200.929 27.566 200.114 28.1843 199.1 28.6136C198.104 29.0429 197.023 29.2576 195.855 29.2576Z" fill="#052F62"/>
<rect width="41" height="38" rx="12" fill="#5D96D9"/>
<path d="M22.3766 10.968C23.2697 10.968 24.1026 11.2256 24.8754 11.7408C25.6653 12.256 26.3007 12.9515 26.7816 13.8274C27.2625 14.7032 27.5029 15.6821 27.5029 16.764C27.5029 17.8287 27.2625 18.799 26.7816 19.6749C26.3007 20.5507 25.6653 21.2548 24.8754 21.7872C24.1026 22.3024 23.2697 22.56 22.3766 22.56H17.6368L17.8944 22.0963V27.4286C17.8944 27.8751 17.757 28.253 17.4822 28.5621C17.2075 28.854 16.8468 29 16.4003 29C15.971 29 15.6189 28.854 15.3442 28.5621C15.0694 28.253 14.932 27.8751 14.932 27.4286V12.5394C14.932 12.0929 15.078 11.7236 15.3699 11.4317C15.679 11.1226 16.0569 10.968 16.5034 10.968H22.3766ZM22.3766 19.6234C22.7029 19.6234 23.0206 19.486 23.3298 19.2112C23.6389 18.9364 23.8965 18.5844 24.1026 18.155C24.3086 17.7085 24.4117 17.2449 24.4117 16.764C24.4117 16.266 24.3086 15.8023 24.1026 15.373C23.8965 14.9436 23.6389 14.6002 23.3298 14.3426C23.0206 14.0678 22.7029 13.9304 22.3766 13.9304H17.5853L17.8944 13.4667V20.0355L17.611 19.6234H22.3766Z" fill="white"/>
</svg>
